<svg xmlns="http://www.w3.org/2000/svg" width="200" height="60" viewBox="0 0 200 60">
  <g fill="none" fill-rule="evenodd">
    <path fill="#FF8A00" d="M40,20 C46.0751322,20 51,24.9248678 51,31 C51,37.0751322 46.0751322,42 40,42 L10,42 C3.92486775,42 -1,37.0751322 -1,31 C-1,24.9248678 3.92486775,20 10,20 L40,20 Z M40,25 L10,25 C6.6862915,25 4,27.6862915 4,31 C4,34.3137085 6.6862915,37 10,37 L40,37 C43.3137085,37 46,34.3137085 46,31 C46,27.6862915 43.3137085,25 40,25 Z"/>
    <path fill="#FF8A00" d="M40,10 C46.0751322,10 51,14.9248678 51,21 C51,27.0751322 46.0751322,32 40,32 L10,32 C3.92486775,32 -1,27.0751322 -1,21 C-1,14.9248678 3.92486775,10 10,10 L40,10 Z M40,15 L10,15 C6.6862915,15 4,17.6862915 4,21 C4,24.3137085 6.6862915,27 10,27 L40,27 C43.3137085,27 46,24.3137085 46,21 C46,17.6862915 43.3137085,15 40,15 Z"/>
    <path fill="#FF8A00" d="M40,30 C46.0751322,30 51,34.9248678 51,41 C51,47.0751322 46.0751322,52 40,52 L10,52 C3.92486775,52 -1,47.0751322 -1,41 C-1,34.9248678 3.92486775,30 10,30 L40,30 Z M40,35 L10,35 C6.6862915,35 4,37.6862915 4,41 C4,44.3137085 6.6862915,47 10,47 L40,47 C43.3137085,47 46,44.3137085 46,41 C46,37.6862915 43.3137085,35 40,35 Z"/>
    <text font-family="Arial, sans-serif" font-size="24" font-weight="bold" fill="#333">
      <tspan x="60" y="35">STACK FOOD</tspan>
    </text>
  </g>
</svg>
